HIERARCHY
ROOT hip
{
  OFFSET 0 0 0
  CHANNELS 6 Xposition Yposition Zposition Zrotation Yrotation Xrotation
  JOINT abdomen
  {
    OFFSET 0 20.6881 -0.73152
    CHANNELS 3 Zrotation Xrotation Yrotation
    JOINT chest
    {
      OFFSET 0 11.7043 -0.48768
      CHANNELS 3 Zrotation Xrotation Yrotation
      JOINT neck
      {
        OFFSET 0 22.1894 -2.19456
        CHANNELS 3 Zrotation Xrotation Yrotation
        JOINT head
        {
          OFFSET -0.24384 7.07133 1.2192
          CHANNELS 3 Zrotation Xrotation Yrotation
          JOINT leftEye
          {
            OFFSET 4.14528 8.04674 8.04672
            CHANNELS 3 Zrotation Xrotation Yrotation
            End Site
            {
              OFFSET 1 0 0
            }
          }
          JOINT rightEye
          {
            OFFSET -3.6576 8.04674 8.04672
            CHANNELS 3 Zrotation Xrotation Yrotation
            End Site
            {
              OFFSET 1 0 0
            }
          }
        }
      }
      JOINT rCollar
      {
        OFFSET -2.68224 19.2634 -4.8768
        CHANNELS 3 Zrotation Xrotation Yrotation
        JOINT rShldr
        {
          OFFSET -8.77824 -1.95073 1.46304
          CHANNELS 3 Zrotation Xrotation Yrotation
          JOINT rForeArm
          {
            OFFSET -28.1742 -1.7115 0.48768
            CHANNELS 3 Zrotation Xrotation Yrotation
            JOINT rHand
            {
              OFFSET -22.5879 0.773209 7.07136
              CHANNELS 3 Zrotation Xrotation Yrotation
              JOINT rThumb1
              {
                OFFSET -1.2192 -0.487915 3.41376
                CHANNELS 3 Zrotation Xrotation Yrotation
                JOINT rThumb2
                {
                  OFFSET -3.37035 -0.52449 3.41376
                  CHANNELS 3 Zrotation Xrotation Yrotation
                  End Site
                  {
                    OFFSET -1.78271 -1.18214 1.43049
                  }
                }
              }
              JOINT rIndex1
              {
                OFFSET -7.75947 0.938293 5.60832
                CHANNELS 3 Zrotation Xrotation Yrotation
                JOINT rIndex2
                {
                  OFFSET -2.54057 -0.884171 1.56538
                  CHANNELS 3 Zrotation Xrotation Yrotation
                  End Site
                  {
                    OFFSET -1.62519 -0.234802 1.16502
                  }
                }
              }
              JOINT rMid1
              {
                OFFSET -8.24714 1.18213 3.41376
                CHANNELS 3 Zrotation Xrotation Yrotation
                JOINT rMid2
                {
                  OFFSET -3.10165 -0.590103 1.0647
                  CHANNELS 3 Zrotation Xrotation Yrotation
                  End Site
                  {
                    OFFSET -2.48547 -0.328903 0.83742
                  }
                }
              }
              JOINT rRing1
              {
                OFFSET -8.82822 0.546677 1.51678
                CHANNELS 3 Zrotation Xrotation Yrotation
                JOINT rRing2
                {
                  OFFSET -2.60934 -0.819778 -0.0198488
                  CHANNELS 3 Zrotation Xrotation Yrotation
                  End Site
                  {
                    OFFSET -2.33842 -0.294052 0.168128
                  }
                }
              }
              JOINT rPinky1
              {
                OFFSET -8.27202 -0.0477905 -0.4584
                CHANNELS 3 Zrotation Xrotation Yrotation
                JOINT rPinky2
                {
                  OFFSET -1.82734 -0.647385 -0.700984
                  CHANNELS 3 Zrotation Xrotation Yrotation
                  End Site
                  {
                    OFFSET -1.69225 -0.51767 -0.607171
                  }
                }
              }
            }
          }
        }
      }
      JOINT lCollar
      {
        OFFSET 2.68224 19.2634 -4.8768
        CHANNELS 3 Zrotation Xrotation Yrotation
        JOINT lShldr
        {
          OFFSET 8.77824 -1.95073 1.46304
          CHANNELS 3 Zrotation Xrotation Yrotation
          JOINT lForeArm
          {
            OFFSET 28.1742 -1.7115 0.48768
            CHANNELS 3 Zrotation Xrotation Yrotation
            JOINT lHand
            {
              OFFSET 22.5879 0.773209 7.07136
              CHANNELS 3 Zrotation Xrotation Yrotation
              JOINT lThumb1
              {
                OFFSET 1.2192 -0.487915 3.41376
                CHANNELS 3 Zrotation Xrotation Yrotation
                JOINT lThumb2
                {
                  OFFSET 3.37035 -0.52449 3.41376
                  CHANNELS 3 Zrotation Xrotation Yrotation
                  End Site
                  {
                    OFFSET 1.78271 -1.18214 1.43049
                  }
                }
              }
              JOINT lIndex1
              {
                OFFSET 7.75947 0.938293 5.60832
                CHANNELS 3 Zrotation Xrotation Yrotation
                JOINT lIndex2
                {
                  OFFSET 2.54057 -0.884171 1.56538
                  CHANNELS 3 Zrotation Xrotation Yrotation
                  End Site
                  {
                    OFFSET 1.62519 -0.234802 1.16502
                  }
                }
              }
              JOINT lMid1
              {
                OFFSET 8.24714 1.18213 3.41376
                CHANNELS 3 Zrotation Xrotation Yrotation
                JOINT lMid2
                {
                  OFFSET 3.10165 -0.590103 1.0647
                  CHANNELS 3 Zrotation Xrotation Yrotation
                  End Site
                  {
                    OFFSET 2.48547 -0.328903 0.83742
                  }
                }
              }
              JOINT lRing1
              {
                OFFSET 8.82822 0.546677 1.51678
                CHANNELS 3 Zrotation Xrotation Yrotation
                JOINT lRing2
                {
                  OFFSET 2.60934 -0.819778 -0.0198488
                  CHANNELS 3 Zrotation Xrotation Yrotation
                  End Site
                  {
                    OFFSET 2.33842 -0.294052 0.168128
                  }
                }
              }
              JOINT lPinky1
              {
                OFFSET 8.27202 -0.0477905 -0.4584
                CHANNELS 3 Zrotation Xrotation Yrotation
                JOINT lPinky2
                {
                  OFFSET 1.82734 -0.647385 -0.700984
                  CHANNELS 3 Zrotation Xrotation Yrotation
                  End Site
                  {
                    OFFSET 1.69225 -0.51767 -0.607171
                  }
                }
              }
            }
          }
        }
      }
    }
  }
  JOINT rButtock
  {
    OFFSET -8.77824 4.35084 1.2192
    CHANNELS 3 Zrotation Xrotation Yrotation
    JOINT rThigh
    {
      OFFSET 0 -1.70687 -2.19456
      CHANNELS 3 Zrotation Xrotation Yrotation
      JOINT rShin
      {
        OFFSET 0 -36.8199 0.73152
        CHANNELS 3 Zrotation Xrotation Yrotation
        JOINT rFoot
        {
          OFFSET 0.73152 -45.1104 -5.12064
          CHANNELS 3 Zrotation Xrotation Yrotation
          End Site
          {
            OFFSET -1.1221 -3.69964 12.103
          }
        }
      }
    }
  }
  JOINT lButtock
  {
    OFFSET 8.77824 4.35084 1.2192
    CHANNELS 3 Zrotation Xrotation Yrotation
    JOINT lThigh
    {
      OFFSET 0 -1.70687 -2.19456
      CHANNELS 3 Zrotation Xrotation Yrotation
      JOINT lShin
      {
        OFFSET 0 -36.8199 0.73152
        CHANNELS 3 Zrotation Xrotation Yrotation
        JOINT lFoot
        {
          OFFSET -0.73152 -45.1104 -5.12064
          CHANNELS 3 Zrotation Xrotation Yrotation
          End Site
          {
            OFFSET 1.1221 -3.69964 12.103
          }
        }
      }
    }
  }
}
MOTION
Frames:	5
Frame Time:	0.00833333
-18.8712 62.3911 -30.8435 210.477 -85.5066 -151.123 -2.29162 16.9387 2.02476 3.29546 -6.157 0.533441 -0.975077 4.35976 3.59989 3.31935 -72.7002 6.74922 -0.0 0.0 0.0 -0.0 0.0 0.0 -8.38038e-14 8.28494e-13 2.41143e-15 56.8667 42.5296 53.852 -27.7336 -29.2081 65.9865 -0.273586 -14.726 -2.11689 -7.75524e-10 -1.2959e-09 1.04982e-09 -1.35219e-09 -2.23913e-09 1.81098e-09 -7.75521e-10 -1.2959e-09 1.04979e-09 7.73091 5.47488 0.417314 -7.75524e-10 -1.29591e-09 1.04982e-09 2.90554 0.965183 0.102902 -7.75518e-10 -1.2959e-09 1.04982e-09 10.2786 0.731801 0.0259123 -7.75528e-10 -1.2959e-09 1.04982e-09 2.22167 -0.733487 -0.20892 -8.39573e-14 8.28491e-13 2.22895e-15 -134.288 6.28103 -73.1328 3.29041 -0.969776 -5.69548 113.332 80.6247 -121.675 4.47163e-09 1.2618e-09 1.90811e-09 7.72866e-09 2.24114e-09 2.93222e-09 4.47164e-09 1.2618e-09 1.90811e-09 -7.73091 5.47488 -0.417314 4.47163e-09 1.2618e-09 1.9081e-09 -2.90554 0.965183 -0.102902 4.47163e-09 1.2618e-09 1.90811e-09 -10.2786 0.731801 -0.0259123 4.47163e-09 1.2618e-09 1.9081e-09 -2.22167 -0.733487 0.20892 -2.03217e-16 0.0 -3.88251e-19 -156.362 -65.0497 155.279 -1.60018 62.8789 0.685458 -6.27399 -4.31317 -20.6396 2.03217e-16 0.0 3.88251e-19 89.6816 -72.5647 108.258 171.453 81.9392 -172.056 0.308464 6.18153 -7.97249
-18.5664 62.295 -30.9028 211.821 -85.7275 -152.933 -2.14276 16.9879 2.04682 3.32212 -6.13826 0.545614 -1.09152 4.59223 3.4659 3.89243 -73.0328 6.8699 -0.0 0.0 0.0 -0.0 0.0 0.0 -5.46495e-14 1.84812e-13 3.59365e-15 56.9863 42.4732 53.7412 -27.7512 -29.2919 66.12 -0.272104 -14.6867 -2.11099 -1.37576e-09 -1.56244e-09 2.12419e-09 -2.40101e-09 -2.7024e-09 3.6637e-09 -1.37576e-09 -1.56244e-09 2.12416e-09 7.73091 5.47488 0.417314 -1.37576e-09 -1.56245e-09 2.12419e-09 2.90554 0.965183 0.102902 -1.37575e-09 -1.56244e-09 2.12419e-09 10.2786 0.731801 0.0259123 -1.37577e-09 -1.56244e-09 2.12419e-09 2.22167 -0.733487 -0.20892 -5.47353e-14 1.8481e-13 3.41351e-15 -133.155 6.69395 -73.3018 3.25772 -0.958258 -5.63829 106.21 81.2255 -114.463 7.02948e-09 1.93479e-09 2.89773e-09 1.21472e-08 3.45339e-09 4.43903e-09 7.02948e-09 1.9348e-09 2.89774e-09 -7.73091 5.47488 -0.417314 7.02948e-09 1.9348e-09 2.89773e-09 -2.90554 0.965183 -0.102902 7.02948e-09 1.9348e-09 2.89773e-09 -10.2786 0.731801 -0.0259123 7.02948e-09 1.9348e-09 2.89772e-09 -2.22167 -0.733487 0.20892 -2.03217e-16 0.0 -3.88251e-19 -155.99 -65.0072 155.262 -1.59173 62.7469 0.662575 -6.28377 -4.46658 -20.4379 2.03217e-16 0.0 3.88251e-19 89.0982 -72.8367 107.372 171.384 82.0028 -171.974 0.156509 4.61007 -7.20838
-18.1162 62.2027 -31.0102 215.295 -85.9525 -156.377 -2.00114 17.0608 2.05051 3.3374 -6.11376 0.55122 -1.19049 4.77834 3.34159 4.42924 -73.3319 6.98149 -0.0 0.0 0.0 -0.0 0.0 0.0 -1.97133e-14 -4.85971e-13 4.9172e-15 57.0984 42.4225 53.6646 -27.7686 -29.3755 66.2532 -0.269733 -14.6242 -2.10161 -1.88372e-09 -1.72889e-09 3.05041e-09 -3.28865e-09 -2.99257e-09 5.26084e-09 -1.88372e-09 -1.72889e-09 3.05039e-09 7.73091 5.47488 0.417314 -1.88372e-09 -1.72889e-09 3.05042e-09 2.90554 0.965183 0.102902 -1.88371e-09 -1.72888e-09 3.05042e-09 10.2786 0.731801 0.0259123 -1.88372e-09 -1.72888e-09 3.05042e-09 2.22167 -0.733487 -0.20892 -1.97405e-14 -4.85972e-13 4.73007e-15 -132.006 7.10183 -73.5006 3.23116 -0.948693 -5.59183 98.272 81.6657 -106.436 9.14249e-09 2.48833e-09 3.70247e-09 1.57972e-08 4.45155e-09 5.66318e-09 9.14248e-09 2.48833e-09 3.70248e-09 -7.73091 5.47488 -0.417314 9.14248e-09 2.48833e-09 3.70247e-09 -2.90554 0.965183 -0.102902 9.14248e-09 2.48833e-09 3.70247e-09 -10.2786 0.731801 -0.0259123 9.14249e-09 2.48834e-09 3.70246e-09 -2.22167 -0.733487 0.20892 -2.03217e-16 0.0 -3.88251e-19 -155.561 -64.9709 155.31 -1.58299 62.6117 0.639318 -6.28162 -4.60507 -20.2173 2.03217e-16 0.0 3.88251e-19 88.4479 -73.1455 106.407 171.288 82.0952 -171.871 0.051399 3.10354 -6.47531
-17.7533 62.1495 -31.1412 220.066 -86.3041 -161.392 -1.88886 17.1396 2.01545 3.35132 -6.10103 0.544822 -1.2468 4.87577 3.23211 4.74797 -73.506 6.95661 -0.0 0.0 0.0 -0.0 0.0 0.0 1.9923e-15 -7.61557e-13 3.67752e-15 57.1996 42.3925 53.601 -27.7856 -29.4585 66.3854 -0.266362 -14.5359 -2.08833 -2.06656e-09 -1.7402e-09 3.37703e-09 -3.60802e-09 -3.01344e-09 5.82376e-09 -2.06656e-09 -1.74021e-09 3.37701e-09 7.73091 5.47488 0.417314 -2.06656e-09 -1.7402e-09 3.37704e-09 2.90554 0.965183 0.102902 -2.06655e-09 -1.7402e-09 3.37704e-09 10.2786 0.731801 0.0259123 -2.06657e-09 -1.7402e-09 3.37704e-09 2.22167 -0.733487 -0.20892 1.98353e-15 -7.61557e-13 3.47873e-15 -130.857 7.49758 -73.7306 3.21478 -0.942359 -5.56319 90.545 81.9096 -98.6296 9.8237e-09 2.65745e-09 3.96927e-09 1.69754e-08 4.75931e-09 6.07114e-09 9.82369e-09 2.65745e-09 3.96928e-09 -7.73091 5.47488 -0.417314 9.82369e-09 2.65745e-09 3.96928e-09 -2.90554 0.965183 -0.102902 9.82369e-09 2.65745e-09 3.96927e-09 -10.2786 0.731801 -0.0259123 9.8237e-09 2.65745e-09 3.96926e-09 -2.22167 -0.733487 0.20892 -2.03217e-16 0.0 -3.88251e-19 -155.09 -64.8949 155.46 -1.57554 62.4768 0.612074 -6.24907 -4.64398 -20.0169 2.03217e-16 0.0 3.88251e-19 87.7027 -73.5281 105.395 171.173 82.2052 -171.75 -0.00282441 1.63871 -5.68581
-17.3495 62.0208 -31.1973 221.607 -86.6885 -162.995 -1.82333 17.2527 1.92603 3.36595 -6.10526 0.521196 -1.26355 4.83661 3.14315 4.81161 -73.4881 6.78173 -0.0 0.0 0.0 -0.0 0.0 0.0 3.22732e-15 -3.26062e-13 -2.88937e-15 57.2767 42.3843 53.5685 -27.8007 -29.5334 66.5057 -0.261722 -14.413 -2.0699 -1.76575e-09 -1.53967e-09 2.78978e-09 -3.08173e-09 -2.66647e-09 4.81027e-09 -1.76574e-09 -1.53967e-09 2.78976e-09 7.73091 5.47488 0.417314 -1.76574e-09 -1.53967e-09 2.78978e-09 2.90554 0.965183 0.102902 -1.76574e-09 -1.53967e-09 2.78978e-09 10.2786 0.731801 0.0259123 -1.76575e-09 -1.53967e-09 2.78978e-09 2.22167 -0.733487 -0.20892 3.17128e-15 -3.26063e-13 -3.10834e-15 -129.707 7.87402 -73.9968 3.21452 -0.940762 -5.56269 83.7345 81.9952 -91.7517 8.38948e-09 2.26213e-09 3.44615e-09 1.45027e-08 4.05249e-09 5.28264e-09 8.38948e-09 2.26213e-09 3.44616e-09 -7.73091 5.47488 -0.417314 8.38948e-09 2.26213e-09 3.44615e-09 -2.90554 0.965183 -0.102902 8.38947e-09 2.26214e-09 3.44615e-09 -10.2786 0.731801 -0.0259123 8.38949e-09 2.26214e-09 3.44613e-09 -2.22167 -0.733487 0.20892 -2.03217e-16 0.0 -3.88251e-19 -154.538 -64.7805 155.788 -1.57021 62.3423 0.578517 -6.17759 -4.53872 -19.8566 2.03217e-16 0.0 3.88251e-19 86.623 -74.027 104.123 171.011 82.3569 -171.584 0.0013303 0.191347 -4.795
